<?xml version="1.0" encoding="UTF-8" standalone="no"?>
<svg
   viewBox="0 0 108.854 25"
   fill="none"
   version="1.1"
   id="svg18"
   sodipodi:docname="Arduino Pro.svg"
   inkscape:version="1.1 (c68e22c387, 2021-05-23)"
   width="1.1338959in"
   height="0.26041666in"
   xmlns:inkscape="http://www.inkscape.org/namespaces/inkscape"
   xmlns:sodipodi="http://sodipodi.sourceforge.net/DTD/sodipodi-0.dtd"
   xmlns="http://www.w3.org/2000/svg"
   xmlns:svg="http://www.w3.org/2000/svg">
  <sodipodi:namedview
     id="namedview20"
     pagecolor="#ffffff"
     bordercolor="#cccccc"
     borderopacity="1"
     inkscape:pageshadow="0"
     inkscape:pageopacity="1"
     inkscape:pagecheckerboard="0"
     showgrid="false"
     inkscape:zoom="7.0201052"
     inkscape:cx="62.748348"
     inkscape:cy="14.031129"
     inkscape:window-width="1920"
     inkscape:window-height="1001"
     inkscape:window-x="-7"
     inkscape:window-y="-7"
     inkscape:window-maximized="1"
     inkscape:current-layer="g8"
     units="in"
     fit-margin-top="0"
     fit-margin-left="0"
     fit-margin-right="0"
     fit-margin-bottom="0"
     inkscape:document-units="in" />
  <g
     clip-path="url(#clip0)"
     id="g8"
     style="fill:#def154;fill-opacity:1">
    <g
       clip-path="url(#clip1)"
       id="g4"
       style="fill:#def154;fill-opacity:1">
      <path
         fill-rule="evenodd"
         clip-rule="evenodd"
         d="M 51.25,12.5 C 51.25,5.60219 45.5773,0 38.6242,0 37.984,0 37.3261,0.0364964 36.6859,0.145985 31.2799,0.930657 27.6522,4.92701 25.625,7.9927 23.5978,4.92701 19.9701,0.930657 14.5641,0.145985 13.9239,0.0547445 13.266,0 12.6258,0 5.65493,0 0,5.60219 0,12.5 0,19.3978 5.67271,25 12.6258,25 c 0.6402,0 1.2981,-0.0365 1.9561,-0.146 5.406,-0.8029 9.0336,-4.7993 11.0609,-7.8649 2.0272,3.0656 5.6549,7.062 11.0609,7.8649 C 37.3439,24.9453 38.0018,25 38.6598,25 45.5773,25 51.25,19.3978 51.25,12.5 Z m -37.3084,7.9744 c -0.4445,0.073 -0.8891,0.0913 -1.3337,0.0913 -4.58794,0 -8.30454,-3.6314 -8.30454,-8.0657 0,-4.45256 3.73438,-8.0657 8.32234,-8.0657 0.4446,0 0.8891,0.0365 1.3337,0.09124 5.1037,0.74818 8.2157,5.91236 9.2826,7.97446 -1.0847,2.0803 -4.2145,7.2263 -9.3004,7.9744 z M 37.2905,4.52554 C 32.1868,5.27372 29.057,10.4379 28.0079,12.5 c 1.0491,2.062 4.1789,7.2263 9.2826,7.9744 0.4445,0.0548 0.8891,0.0913 1.3337,0.0913 4.5702,0 8.3045,-3.6132 8.3045,-8.0657 0,-4.43431 -3.7166,-8.0657 -8.3045,-8.0657 -0.4446,0 -0.8892,0.0365 -1.3337,0.09124 z M 9.06449,11.161 h 7.63591 v 2.4032 H 9.06449 Z m 33.08341,2.4207 h -2.5751 v 2.526 h -2.4679 v -2.526 H 34.5298 V 11.161 h 2.5751 V 8.63499 h 2.4679 V 11.161 h 2.5751 z"
         fill="currentColor"
         id="path2"
         style="fill:#def154;fill-opacity:1" />
    </g>
    <path
       d="m 61.148,22 h 3.354 v -5.382 h 2.886 c 4.082,0 6.344,-2.314 6.344,-5.85 0,-3.302 -1.69,-5.668 -6.214,-5.668 h -6.37 z m 6.136,-8.164 H 64.502 V 7.882 h 2.678 c 2.366,0 2.99,1.248 2.99,3.016 0,2.184 -1.066,2.938 -2.886,2.938 z M 78.2018,22 h 3.354 v -5.85 h 2.86 l 2.964,5.85 h 3.978 l -3.562,-6.5 c 1.898,-0.91 2.912,-2.626 2.912,-4.94 0,-3.302 -1.716,-5.46 -6.24,-5.46 h -6.266 z m 6.032,-8.58 h -2.678 V 7.882 h 2.6 c 2.21,0 2.99,0.832 2.99,2.73 0,2.106 -1.222,2.808 -2.912,2.808 z M 101.704,4.866 c -5.0183,0 -7.0983,3.666 -7.0983,8.814 0,5.486 2.158,8.58 7.0463,8.58 5.174,0 7.202,-3.77 7.202,-8.71 0,-6.136 -2.288,-8.684 -7.15,-8.684 z m -0.052,14.612 c -2.9643,0 -3.4843,-2.028 -3.4843,-5.798 0,-4.316 0.702,-6.032 3.5363,-6.032 2.964,0 3.588,1.664 3.588,5.902 0,4.004 -0.702,5.928 -3.64,5.928 z"
       fill="currentColor"
       id="path6"
       style="fill:#def154;fill-opacity:1;stroke-width:1" />
  </g>
  <defs
     id="defs16">
    <clipPath
       id="clip0">
      <rect
         width="110.25"
         height="25"
         fill="currentColor"
         id="rect10"
         x="0"
         y="0" />
    </clipPath>
    <clipPath
       id="clip1">
      <rect
         width="51.25"
         height="25"
         fill="currentColor"
         id="rect13"
         x="0"
         y="0" />
    </clipPath>
  </defs>
</svg>
