<?xml version="1.0" encoding="UTF-8" standalone="no"?>
<!-- Created with Inkscape (http://www.inkscape.org/) -->

<svg
   width="3.9409695in"
   height="3.9399157in"
   viewBox="0 0 100.10062 100.07386"
   version="1.1"
   id="svg989"
   inkscape:version="1.1 (c68e22c387, 2021-05-23)"
   sodipodi:docname="Logo_NoText_DarkBG_Discord.svg"
   inkscape:export-filename="C:\Users\User\Downloads\UOSM.png"
   inkscape:export-xdpi="300"
   inkscape:export-ydpi="300"
   xmlns:inkscape="http://www.inkscape.org/namespaces/inkscape"
   xmlns:sodipodi="http://sodipodi.sourceforge.net/DTD/sodipodi-0.dtd"
   xmlns="http://www.w3.org/2000/svg"
   xmlns:svg="http://www.w3.org/2000/svg">
  <sodipodi:namedview
     id="namedview991"
     pagecolor="#323232"
     bordercolor="#cccccc"
     borderopacity="1"
     inkscape:pageshadow="0"
     inkscape:pageopacity="0"
     inkscape:pagecheckerboard="false"
     inkscape:document-units="mm"
     showgrid="false"
     fit-margin-top="0.1"
     fit-margin-left="0.1"
     fit-margin-right="0.1"
     fit-margin-bottom="0.1"
     units="in"
     inkscape:zoom="1.4146745"
     inkscape:cx="170.71065"
     inkscape:cy="183.78786"
     inkscape:window-width="1920"
     inkscape:window-height="1018"
     inkscape:window-x="-6"
     inkscape:window-y="-6"
     inkscape:window-maximized="1"
     inkscape:current-layer="g1145" />
  <defs
     id="defs986">
    <clipPath
       clipPathUnits="userSpaceOnUse"
       id="clipPath1149">
      <path
         d="M 0,435.072 H 1135.447 V 0 H 0 Z"
         id="path1147" />
    </clipPath>
  </defs>
  <g
     inkscape:label="Layer 1"
     inkscape:groupmode="layer"
     id="layer1"
     transform="translate(2.5400003,2.5399964)">
    <g
       id="g1145"
       clip-path="url(#clipPath1149)"
       transform="matrix(0.35277777,0,0,-0.35277777,-18.337007,126.19231)">
      <g
         id="g1191"
         transform="translate(283.4137,129.3998)"
         style="fill:#d2d2d2;fill-opacity:1">
        <path
           d="m 0,0 c -0.829,11.458 -2.692,21.976 -6.249,32.161 -3.963,11.346 -9.914,21.505 -18.127,30.272 -1.585,1.691 -1.794,3.101 -1.236,5.244 11.487,44.045 -15.312,88.084 -59.904,97.109 -30.037,6.079 -55.501,-3.275 -75.939,-26.148 -0.589,-0.66 -1.132,-1.363 -1.712,-2.034 -0.142,-0.164 -0.344,-0.274 -0.656,-0.516 -8.761,8.95 -14.049,19.714 -16.735,31.851 -1.93,8.716 -2.296,17.552 -1.982,26.443 0.217,6.136 4.575,8.618 10.101,5.559 6.297,-3.486 12.537,-7.08 18.712,-10.776 1.817,-1.088 3.227,-1.205 5.166,-0.223 7.131,3.616 14.627,6.32 22.44,8.065 1.711,0.381 2.57,1.159 3.018,2.933 1.788,7.081 3.743,14.121 5.672,21.167 1.494,5.45 3.837,7.195 9.54,7.197 8.202,0.001 16.403,0.022 24.604,-0.016 4.42,-0.018 7.051,-2.007 8.221,-6.251 2.263,-8.215 4.479,-16.444 6.66,-24.683 0.419,-1.583 0.967,-2.693 2.752,-3.298 6.409,-2.168 12.586,-4.918 18.379,-8.43 1.612,-0.979 2.801,-0.668 4.252,0.179 7.269,4.243 14.572,8.423 21.869,12.614 4.708,2.702 7.749,2.294 11.596,-1.543 5.726,-5.713 11.459,-11.422 17.165,-17.156 3.517,-3.531 3.969,-6.684 1.481,-11.07 -4.426,-7.801 -8.862,-15.599 -13.446,-23.307 -1.107,-1.861 -1.128,-3.29 -0.145,-5.177 2.609,-5.013 4.752,-10.249 6.291,-15.692 0.546,-1.932 1.472,-2.901 3.467,-3.406 8.367,-2.118 16.684,-4.427 25.022,-6.662 5.715,-1.532 7.645,-4.042 7.638,-9.949 -0.009,-7.98 10e-4,-15.96 -0.027,-23.938 C 37.871,75.796 35.894,73.144 31.261,71.854 22.838,69.512 14.404,67.207 5.939,65.026 4.02,64.533 2.918,63.803 2.381,61.756 0.742,55.53 -1.698,49.579 -4.658,43.865 -5.48,42.278 -5.407,41.097 -4.521,39.589 -0.309,32.43 3.803,25.214 7.931,18.007 10.601,13.347 10.164,10.195 6.374,6.39 4.426,4.434 2.475,2.481 0,0"
           style="fill:#b6b6b6;fill-opacity:1;fill-rule:evenodd;stroke:none"
           id="path1193" />
      </g>
      <g
         id="g1195"
         transform="translate(237.4298,260.6801)"
         style="stroke:none;stroke-opacity:1;fill:#646568;fill-opacity:1">
        <path
           d="m 0,0 c -18.286,-0.404 -33.663,-7.118 -48.81,-14.642 -4.653,-2.311 -9.411,-4.442 -14.227,-6.393 -13.993,-5.671 -26.678,-2.993 -38.159,6.4 -2.566,2.1 -4.866,4.525 -7.399,6.67 -1.956,1.658 -2.041,2.595 0.448,3.93 11.22,6.022 23.134,10.02 35.558,12.561 12.672,2.59 25.42,3.669 38.284,1.405 0.742,-0.13 1.529,-0.017 2.284,0.282 -25.727,9.203 -50.909,6.013 -75.86,-3.688 11.3,11.68 24.537,19.297 40.853,20.574 17.772,1.388 33.536,-4.671 48.42,-13.629 C -12.286,9.664 -6.275,5.399 0,0"
           style="fill:#646568;fill-opacity:1;fill-rule:evenodd;stroke:none;stroke-opacity:1"
           id="path1197" />
      </g>
      <g
         id="g1199"
         transform="translate(251.5607,226.4809)">
        <path
           d="m 0,0 c -15.899,10.317 -32.52,15.414 -51.017,11.94 18.244,0.025 33.984,-6.886 48.513,-17.385 2.654,-1.92 2.193,-2.945 -0.275,-4.258 -2.05,-1.088 -3.981,-2.405 -6.06,-3.429 -7.951,-3.915 -15.791,-3.727 -23.443,0.868 -1.233,0.741 -2.465,1.489 -3.635,2.324 -10.877,7.749 -21.127,16.601 -35.699,19.464 15.585,8.091 30.587,13.771 47.535,9.336 C -14.55,16.368 -5.087,8.988 0,0"
           style="fill:#646568;fill-opacity:1;fill-rule:evenodd;stroke:none;stroke-opacity:1"
           id="path1201" />
      </g>
      <g
         id="g1203"
         transform="translate(87.3004,313.6157)">
        <path
           d="m 0,0 c 0.436,-8.439 1.177,-16.217 3.083,-23.847 5.146,-20.581 17.473,-35.715 35.282,-46.713 15.192,-9.383 31.911,-15.242 48.639,-21.082 14.943,-5.214 29.984,-10.184 44.173,-17.313 14.138,-7.102 26.693,-16.169 35.94,-29.283 9.109,-12.918 13.559,-27.493 15.204,-43.037 0.395,-3.743 0.449,-7.519 0.796,-11.266 0.236,-2.548 -0.333,-3.234 -3.069,-2.468 -18.542,5.185 -37.108,10.278 -55.397,16.323 -21.899,7.239 -43.319,15.595 -63.396,27.085 -19.026,10.887 -36.078,24.115 -49.186,41.946 -11.867,16.143 -18.873,34.215 -21.311,54.081 -0.052,0.419 -0.124,0.836 -0.394,1.234 -0.625,-8.251 0.176,-16.427 1.438,-24.553 6.128,-39.453 28.128,-68.312 60.465,-90.203 24.134,-16.336 50.782,-27.373 78.156,-36.843 7.515,-2.599 15.111,-4.968 22.773,-7.478 C 108.633,-234.934 38.819,-229.529 -5.171,-175.351 -49.484,-120.775 -42.564,-45.652 0,0"
           style="fill:#ec7000;fill-opacity:1;fill-rule:evenodd;stroke:none"
           id="path1205" />
      </g>
    </g>
  </g>
</svg>
